<svg width="20" height="21" viewBox="0 0 20 21" fill="none" xmlns="http://www.w3.org/2000/svg">
<path d="M0.769231 15.6959V5.21367C0.769231 4.97048 0.912451 4.75011 1.13469 4.65134L9.75005 0.822269C9.90923 0.751551 10.0908 0.751551 10.2499 0.822269L18.8653 4.65134C19.0876 4.75011 19.2308 4.97048 19.2308 5.21367V15.6959C19.2308 15.9391 19.0876 16.1595 18.8653 16.2583L10.2499 20.0873C10.0908 20.158 9.90923 20.158 9.75005 20.0873L1.13469 16.2583C0.912451 16.1595 0.769231 15.9391 0.769231 15.6959Z" stroke="#FEDB71" stroke-width="1.5" stroke-linecap="round" stroke-linejoin="round"/>
<path d="M5.38462 2.76242L14.2499 6.70256C14.4722 6.80133 14.6154 7.02171 14.6154 7.2649V10.9675" stroke="#FEDB71" stroke-width="1.5" stroke-linecap="round" stroke-linejoin="round"/>
</svg>
